<?xml version="1.0" encoding="UTF-8"?>
<svg width="224px" height="564px" viewBox="0 0 224 564" version="1.1" xmlns="http://www.w3.org/2000/svg" xmlns:xlink="http://www.w3.org/1999/xlink">
    <title>milo-venus</title>
    <g id="Page-1" stroke="none" stroke-width="1" fill="none" fill-rule="evenodd">
        <g id="milo-venus" fill="#2456DE" fill-rule="nonzero">
            <path d="M222.896138,557.867106 C223.036989,557.558114 223.156932,557.240325 223.260369,556.917038 C223.286779,556.835667 223.306586,556.753195 223.329694,556.670724 C223.40012,556.428809 223.460641,556.183595 223.509059,555.936181 C223.529966,555.832817 223.548673,555.729453 223.565179,555.62499 C223.606994,555.36548 223.636705,555.104872 223.655411,554.843163 C223.659813,554.771688 223.669717,554.701313 223.673018,554.629838 C223.688423,554.290056 223.685122,553.949175 223.662014,553.607195 C223.658713,553.56541 223.65211,553.522525 223.647709,553.480739 C223.6224,553.184942 223.581685,552.889146 223.525565,552.594449 C223.510159,552.510878 223.491452,552.428407 223.472746,552.344836 C223.414425,552.080928 223.343999,551.81922 223.260369,551.55971 C223.23616,551.482737 223.214153,551.406864 223.187743,551.33099 C223.071101,550.996707 222.939053,550.666823 222.778396,550.342436 C222.462582,549.688165 207.310124,517.79821 214.742201,476.619801 C221.572361,438.772128 224.426789,408.268788 223.121719,381.288617 C223.132723,380.914748 223.110715,380.535381 223.072201,380.154914 C221.617477,352.635931 215.791979,328.759975 205.366824,304.45297 C188.175332,264.367579 193.098505,212.121539 196.355679,177.549621 C196.674794,174.162805 196.977403,170.949727 197.241498,167.93788 C197.317425,167.072482 197.260204,166.227978 197.096245,165.41866 C201.663991,161.659074 204.951975,156.615137 205.93903,151.133553 C208.154128,138.83655 203.952815,126.081008 194.700682,117.012478 C187.852916,110.300423 171.996205,99.9101546 142.730064,105.762309 C116.296343,111.045963 107.501975,96.6102079 102.843997,78.9767705 C108.51544,71.3564337 118.626982,53.6416247 109.199886,33.4075961 C102.638223,19.321519 93.6512861,0.0276026463 65.2291489,0.0276026463 L63.4872215,0.0276026463 C46.8514296,0.013366882 24.0633217,-0.0185219734 14.3391192,12.1278331 C5.48863139,23.184469 0.29035906,55.5813468 4.22757718,75.1534067 C6.267712,85.2940627 10.5636593,92.2139443 16.9976768,95.7206188 C21.7447866,98.3080145 26.1342676,100.256534 30.0065623,101.975233 C32.7311437,103.18481 35.0661847,104.222847 37.0634041,105.24439 C37.4760527,105.542386 37.9151109,105.813991 38.3904821,106.042711 C38.6754848,106.180163 38.953885,106.30552 39.2366869,106.437473 C44.9477439,109.828688 47.1980544,113.701535 47.6316106,123.571685 C47.8979065,129.628369 33.6697818,143.167937 15.6584944,160.309846 L15.1435089,160.800274 C1.37094827,173.906594 -2.58937817,197.608811 3.37146883,231.248254 C5.21023112,241.627527 7.61899872,250.619084 9.31580988,256.333787 C9.33671741,256.404163 9.35542415,256.465741 9.37633168,256.536116 C9.69874781,261.121514 11.2558086,265.432007 13.9297718,268.901295 C14.888217,270.372581 15.9622038,271.20389 17.4686464,271.89115 C17.5214654,271.915342 17.5731841,271.941732 17.6260031,271.964824 C17.6502118,271.97582 17.6722197,271.987916 17.6975288,271.997813 C22.6779227,274.167355 27.9664275,275.129518 33.242828,275.129518 C46.3727572,275.129518 59.4047511,269.160804 67.3804238,260.995058 C67.4838611,277.169305 58.1007814,301.297073 48.4624098,321.766419 C36.2127977,347.778929 32.9798333,384.872265 32.4615466,411.932708 C28.4263932,414.138537 24.9645463,416.177224 22.2443665,417.989391 C17.4873531,421.158484 12.4123252,425.044525 12.4123252,431.074818 C12.4123252,443.352027 19.2457865,449.308646 24.2360839,453.658725 C24.6025159,453.978713 24.9623455,454.292104 25.3144723,454.603295 C25.663298,454.93318 26.0165252,455.254268 26.3752544,455.56106 C28.1876072,457.234676 29.7347645,458.921486 30.8065505,461.107522 C32.956725,466.983868 41.0798508,513.637264 47.7328471,555.606296 C48.4106912,559.880503 52.097019,563.027603 56.4270786,563.027603 L214.875349,563.027603 C214.880851,563.027603 214.886353,563.027603 214.892955,563.027603 C215.025003,563.027603 215.15595,563.00671 215.287998,563.001212 C215.537788,562.990216 215.788678,562.982518 216.035167,562.95063 C216.206829,562.927538 216.37739,562.883553 216.547952,562.850565 C216.758127,562.809879 216.969403,562.774691 217.174077,562.71971 C217.340237,562.674626 217.501995,562.611948 217.667055,562.558067 C217.87613,562.487691 218.086306,562.419515 218.289879,562.333745 C218.441734,562.269967 218.589187,562.194094 218.738841,562.12042 C218.951217,562.017056 219.161393,561.909293 219.363866,561.788336 C219.425488,561.752048 219.489311,561.727857 219.549833,561.68937 C219.673077,561.612397 219.784217,561.525528 219.90196,561.444156 C219.98779,561.383677 220.075822,561.327597 220.160553,561.263819 C220.722855,560.843766 221.221335,560.366533 221.654891,559.845315 C221.694505,559.796932 221.730818,559.746349 221.769332,559.697966 C221.950898,559.470346 222.119258,559.235028 222.275514,558.993113 C222.299723,558.955726 222.329434,558.923837 222.352542,558.88535 C222.372349,558.853461 222.386655,558.819373 222.405361,558.787484 C222.564919,558.524676 222.711271,558.25527 222.841118,557.978167 C222.857624,557.94078 222.879632,557.904493 222.896138,557.867106 Z M68.5733431,325.401659 C80.4091594,300.250175 86.5305472,280.950105 87.2894713,266.396561 C87.5704432,261.012099 87.1084894,256.185582 85.9196083,251.926008 C90.7041298,251.458055 94.5797422,250.250175 96.7155286,249.253275 C100.718128,247.385462 102.448955,242.625938 100.581142,238.622338 C98.7133288,234.617739 93.9538048,232.886912 89.9492053,234.756725 C89.8382164,234.80772 77.9984005,239.345266 68.5923412,231.455055 C68.4573547,231.342066 68.3163688,231.243076 68.1773827,231.141086 C63.0618943,226.297571 61.3360669,220.419159 61.3360669,210.0082 L61.3360669,203.300871 C61.3360669,198.883313 57.7544251,195.301671 53.3368669,195.301671 C48.9193087,195.301671 45.3376669,198.883313 45.3376669,203.300871 L45.3376669,210.0082 C45.3376669,227.91041 50.2501756,238.593341 62.6819323,247.196481 C62.6519353,248.786322 61.3000705,250.571143 60.3531652,251.627038 C55.1106895,257.469453 44.2337773,261.691031 35.4696538,259.635237 C35.2046803,258.848315 34.8987109,257.90241 34.5667441,256.842516 C34.6047403,256.461554 34.6617346,256.071593 34.7607247,255.664634 C35.1616846,254.024798 36.4265581,251.031097 40.3841623,249.40126 C44.4687538,247.719428 46.4175589,243.044896 44.7357271,238.959305 C43.0538953,234.874713 38.3803627,232.926908 34.2937714,234.60774 C32.6039404,235.30367 31.028098,236.158585 29.5642444,237.141486 C28.9193089,233.885812 28.3293679,230.453155 27.8544154,226.923508 C25.0476961,206.091592 27.5354473,190.778123 34.857715,183.803821 L35.3266681,183.357865 C58.3393666,161.441057 69.8902114,150.440157 69.3292675,137.665435 C69.1622842,133.856816 68.6813323,130.549147 67.9464058,127.637438 C73.9798024,127.21248 77.9494054,125.252676 79.8872116,124.293772 C83.8458157,122.331968 85.4656537,117.533448 83.5038499,113.573844 C81.543046,109.61624 76.7445259,107.999402 72.7849219,109.957206 C70.3601644,111.159086 64.7467258,113.905811 52.8379168,108.444357 C49.976203,106.843517 46.9225084,105.484653 43.8258181,104.108791 C40.4281579,102.598942 36.9135094,101.039098 33.1708837,98.9973021 C32.1289879,98.4293589 30.5671441,96.0435975 29.5912417,91.1880831 C26.4875521,75.7476273 31.7740234,51.7900233 35.587642,47.0235 C39.6122395,41.9920032 59.3142691,42.0110013 67.734427,42.0243296 L69.3362668,42.0243296 C84.2377765,42.0243296 88.5133489,49.6522371 94.7887213,63.1298892 C101.29707,77.110491 89.5292473,89.7652254 89.0562946,90.2651754 C87.1734829,92.2069812 86.3995603,94.968705 86.9985004,97.6074411 C89.0023,106.42156 92.3089693,117.661436 100.162184,126.409561 C110.262174,137.661435 124.642736,141.51105 142.89891,137.861415 C157.255474,134.989703 168.935306,137.106491 175.782621,143.824819 C180.338165,148.293372 182.510948,154.719729 181.452054,160.597142 C181.09309,162.589942 177.763423,165.874614 173.89781,166.329568 C170.143185,166.785523 167.033496,164.239777 164.656734,158.807321 C162.885911,154.760725 158.168383,152.91291 154.121787,154.685733 C150.074192,156.456556 148.228377,161.173084 149.9992,165.220679 C154.754724,176.089592 163.181881,182.31497 172.89691,182.361965 C172.787921,183.534848 172.675932,184.726728 172.559943,185.951606 C169.448255,219.0043 164.744725,268.954305 181.972002,309.149285 C186.122587,318.834316 189.401259,328.471352 191.828016,338.432356 C187.555444,339.29827 180.9931,341.245075 170.208179,344.9987 C156.879512,349.640235 139.336266,356.338565 120.810119,363.862813 C99.40126,372.556943 74.8417162,383.113888 55.8246181,392.295969 C57.015499,363.701829 61.3770628,340.69613 68.5733431,325.401659 Z M54.80572,446.564542 C67.5534451,445.974601 82.1639839,439.88321 95.8526149,433.156883 C99.8172184,431.209078 101.453055,426.415557 99.5042497,422.449954 C97.5554446,418.48535 92.761924,416.849514 88.7973205,418.799319 C64.8217183,430.579141 50.1951811,433.508848 44.0727934,427.766422 C43.5708436,427.317467 43.0758931,426.88151 42.6009406,426.467552 C39.6232384,423.869812 38.1623845,422.496949 37.6104397,420.432155 C43.9398067,415.721627 67.6554349,403.248874 114.878712,383.598839 C153.779822,367.411458 186.011598,355.89061 194.89571,354.104789 C195.485651,358.044395 195.948604,362.061993 196.29657,366.169582 C176.372562,371.286071 154.021797,383.133886 132.651935,394.999699 C128.789321,397.144484 127.39646,402.013997 129.541246,405.876611 C131.003099,408.509348 133.729827,409.993199 136.541546,409.993199 C137.854414,409.993199 139.187281,409.669232 140.417158,408.9863 C158.864313,398.744324 179.508248,387.720427 197.046494,382.547944 C197.240475,403.68383 194.671732,427.600439 189.449254,456.562542 C188.851314,459.877211 188.399359,463.129885 188.065393,466.315567 C183.137885,447.450453 181.29607,433.268872 181.261073,432.993899 C180.713128,428.609338 176.707529,425.499649 172.331966,426.048594 C167.948405,426.596539 164.838716,430.595139 165.386661,434.978701 C165.652634,437.109488 171.572042,482.903908 191.616038,521.977 L94.5997402,521.977 C94.5967405,521.747023 94.5947407,521.525045 94.591741,521.292068 C94.3807621,503.78282 94.0277974,474.47875 100.486151,461.561042 C102.461954,457.609437 100.860114,452.803918 96.9085093,450.829115 C92.9569045,448.854313 88.152385,450.455153 86.1765826,454.405758 C77.9824021,470.794119 78.3363667,500.092189 78.5943409,521.486049 C78.5963407,521.653032 78.5983405,521.811016 78.6003403,521.977 L68.1613843,521.977 C64.6287376,499.900208 58.5733432,463.196879 54.80572,446.564542 Z" id="Shape"></path>
            <path d="M135.352665,243.565844 C146.483551,243.565844 156.720528,239.128288 163.230876,231.013099 C165.9956,227.567444 165.443655,222.532947 161.998,219.767224 C158.553344,217.0035 153.517848,217.555445 150.753124,221.000101 C146.024597,226.894511 136.70053,229.074293 127.548445,226.432557 C123.305869,225.20368 118.869313,227.653435 117.643436,231.897011 C116.416558,236.141586 118.864314,240.576143 123.107889,241.80202 C127.218478,242.988902 131.343066,243.565844 135.352665,243.565844 Z" id="Path"></path>
        </g>
    </g>
</svg>