<?xml version="1.0" encoding="UTF-8"?>
<svg width="387px" height="535px" viewBox="0 0 387 535" version="1.1" xmlns="http://www.w3.org/2000/svg" xmlns:xlink="http://www.w3.org/1999/xlink">
    <title>Path</title>
    <defs>
        <path d="M377.488676,215.432054 L355.677441,141.943583 C351.092953,126.497704 341.078501,113.234818 327.479431,104.597396 L284.909343,77.5610682 L287.330247,70.2956329 C289.631418,63.3936794 286.459562,55.7342969 279.953056,52.4797685 L207.318605,16.1546928 C203.763396,14.3772034 199.575916,14.1177236 195.829555,15.4445375 C192.083194,16.7713513 188.991159,19.6088211 187.347466,23.2268314 L185.264754,27.8113253 L125.652767,11.3002138 C101.104493,4.50121184 75.087922,13.0671979 59.3788329,33.1259346 L11.5951382,94.1415144 C9.4714651,96.8539716 8.59027731,100.356424 9.17843603,103.749622 C9.76659475,107.14387 11.7736864,110.145222 14.685072,111.984692 L67.1719359,145.141383 C71.7826801,148.05449 77.8291618,147.532379 81.8738033,143.872348 L97.2426006,129.964439 L87.6997254,234.096743 C87.3027183,238.430161 90.492429,242.26458 94.8248482,242.661678 C99.1509656,243.057726 102.990802,239.868331 103.387809,235.534912 L107.476562,190.920139 L150.577043,202.298382 C153.211154,202.99383 155.858919,203.328948 158.468873,203.328948 C169.617631,203.328948 180.044845,197.206484 185.412844,186.879817 C187.419935,183.019135 185.91803,178.262355 182.058239,176.254801 C178.200548,174.248297 173.442764,175.750548 171.435672,179.61018 C168.233358,185.769412 161.31304,188.835896 154.598578,187.062609 L108.936456,175.007827 L113.1733,128.777345 C113.731,122.689549 110.559144,116.989397 105.091369,114.255929 C99.6235931,111.522461 93.1611992,112.408054 88.6292262,116.509306 L73.3066414,130.376245 L26.4219893,100.761927 L71.7816298,42.8432968 C83.5542567,27.8102748 103.050668,21.3905126 121.448483,26.4866125 L187.545969,44.7951734 C191.280777,45.8299412 195.215139,43.9925718 196.818922,40.4628057 L201.239565,30.7338877 L272.096936,66.1712692 L268.014484,78.4214487 C266.870726,81.853516 268.211938,85.624903 271.265111,87.5641734 L319.033052,117.902303 C329.420355,124.499604 337.070619,134.630874 340.572264,146.430378 L361.091652,215.56547 L308.920923,217.96277 L302.121388,200.032398 C299.777156,193.851105 293.780037,190.052405 287.186358,190.572415 C280.59793,191.095577 275.269842,195.797729 273.930731,202.272119 L272.178858,210.741457 C271.690476,213.100937 271.239905,215.469873 270.81664,217.84301 L224.694494,205.854411 C217.976881,204.107387 213.443858,198.041652 213.670719,191.10293 C213.813558,186.753754 210.404338,183.112632 206.056165,182.969761 C201.719544,182.8479 198.067709,186.237946 197.92487,190.587122 C197.454343,204.943606 206.832324,217.493185 220.731775,221.105943 L268.492363,233.520004 C264.62627,266.270141 266.756245,299.811324 274.837125,331.735748 L282.549357,362.204143 C284.055463,368.155371 282.757313,374.347169 278.986795,379.191142 C275.216278,384.035116 269.533194,386.813756 263.396388,386.813756 L118.513991,386.813756 C107.794798,386.813756 98.9325066,378.092293 98.7602602,367.371678 L97.8654187,311.886066 C97.718379,302.810574 100.453317,267.555984 100.453317,267.555984 C100.850324,263.222566 97.6606134,259.388148 93.3281943,258.991049 C88.991574,258.591849 85.1622407,261.784397 84.7652335,266.117815 C84.7652335,266.117815 81.9578259,302.50277 82.1143182,312.141343 L83.0091596,367.626956 C83.3189932,386.895697 99.2475917,402.572692 118.515041,402.572692 L168.978009,402.572692 L168.978009,441.149044 C168.978009,445.500321 172.504861,449.027986 176.855134,449.027986 C181.205408,449.027986 184.73226,445.500321 184.73226,441.149044 L184.73226,404.389051 L197.125605,404.389051 L197.125605,479.255811 L184.73226,479.255811 L184.73226,472.665864 C184.73226,468.314586 181.205408,464.786921 176.855134,464.786921 C172.504861,464.786921 168.978009,468.314586 168.978009,472.665864 L168.978009,479.345106 L84.5047632,479.345106 C66.4524917,479.345106 51.7663786,494.034606 51.7663786,512.09104 L51.7663786,518.121058 C51.7663786,522.472335 55.2932303,526 59.6435043,526 L322.21436,526 C326.564634,526 330.091486,522.472335 330.091486,518.121058 L330.091486,512.09104 C330.091486,494.034606 315.405373,479.345106 297.353101,479.345106 L212.879856,479.345106 L212.879856,402.573742 L263.400589,402.573742 C274.432766,402.573742 284.646773,397.579543 291.423201,388.871736 C298.19963,380.163929 300.53336,369.035711 297.825729,358.337158 L290.113498,327.868763 C280.728165,290.78941 279.863782,251.391546 287.610672,213.934004 L288.647302,208.922997 L295.107596,225.959371 C296.983402,230.905246 301.789499,234.061025 307.075575,233.821505 L366.354622,231.097492 C370.12829,230.924155 373.548013,229.057371 375.737854,225.978281 C377.925594,222.898139 378.564167,219.054266 377.488676,215.432054 Z" id="path-1"></path>
    </defs>
    <g id="Page-1" stroke="none" stroke-width="1" fill="none" fill-rule="evenodd">
        <g id="Path">
            <use fill="#2456DE" fill-rule="evenodd" xlink:href="#path-1"></use>
            <use stroke="#2456DE" stroke-width="1" xlink:href="#path-1"></use>
            <use stroke="#2456DE" stroke-width="18" xlink:href="#path-1"></use>
        </g>
    </g>
</svg>