<?xml version="1.0" encoding="UTF-8"?>
<svg width="530px" height="601px" viewBox="0 0 530 601" version="1.1" xmlns="http://www.w3.org/2000/svg" xmlns:xlink="http://www.w3.org/1999/xlink">
    <title>Shape</title>
    <g id="Page-1" stroke="none" stroke-width="1" fill="none" fill-rule="evenodd">
        <g id="Group" transform="translate(5.000000, 5.000000)" fill="#2456DE" fill-rule="nonzero" stroke="#2456DE" stroke-width="8.4">
            <path d="M329.333333,70.4121094 L312,70.4121094 L312,34.6289062 L346.666667,34.6289062 L346.666667,0 L173.333333,0 L173.333333,34.6289062 L208,34.6289062 L208,70.4121094 C197.342709,70.4121094 116.124306,70.4121094 104,70.4121094 L104,382.072266 L208,382.072266 L208,402.195809 L235.95,485.958984 L0,485.958984 L0,591 L520,591 L520,485.958984 L284.05,485.958984 L312,402.195809 L312,382.072266 L329.333333,382.072266 C377.473958,382.072266 421.651389,355.397186 444.017709,312.814453 L520,312.814453 L520,139.669922 L444.017709,139.669922 C421.651389,97.0871887 377.473958,70.4121094 329.333333,70.4121094 Z M242.666667,34.6289062 L277.333333,34.6289062 L277.333333,70.4121094 L242.666667,70.4121094 L242.666667,34.6289062 Z M138.666667,243.556641 L208,243.556641 L208,278.185547 L138.666667,278.185547 L138.666667,243.556641 Z M242.666667,220.272308 C244.873958,218.089966 247.022569,215.767845 249.107986,213.296928 C255.02118,230.633927 264.775694,246.194389 277.333333,259.013397 L277.333333,396.577629 L260,448.520988 L242.666667,396.577629 C242.666667,367.855477 242.666667,241.432914 242.666667,220.272308 Z M138.666667,208.927734 L138.666667,174.298828 L173.333333,174.298828 L173.333333,208.927734 L138.666667,208.927734 Z M138.666667,105.041016 L173.333333,105.041016 L173.333333,139.669922 L138.666667,139.669922 L138.666667,105.041016 Z M138.666667,347.443359 L138.666667,312.814453 L208,312.814453 L208,347.443359 C187.376042,347.443359 159.719444,347.443359 138.666667,347.443359 Z M485.333333,278.185547 L422.621875,278.185547 L414.167361,295.067139 C397.998611,327.373924 365.489583,347.443359 329.333333,347.443359 L312,347.443359 L312,283.781181 C327.771528,291.288619 345.398264,295.5 364,295.5 L364,260.871094 C316.211458,260.871094 277.333333,222.035317 277.333333,174.298828 L277.333333,139.669922 L242.666667,139.669922 C242.666667,163.202248 227.39618,192.050651 208,203.692818 L208,105.041016 L329.333333,105.041016 C365.489583,105.041016 397.998611,125.110451 414.171875,157.412728 L422.621875,174.298828 L485.333333,174.298828 L485.333333,278.185547 Z" id="Shape"></path>
        </g>
    </g>
</svg>