<?xml version="1.0" encoding="UTF-8"?>
<svg width="495px" height="564px" viewBox="0 0 495 564" version="1.1" xmlns="http://www.w3.org/2000/svg" xmlns:xlink="http://www.w3.org/1999/xlink">
    <title>Group</title>
    <g id="Page-1" stroke="none" stroke-width="1" fill="none" fill-rule="evenodd">
        <g id="Group" fill="#2456DE" fill-rule="nonzero">
            <path d="M313.5,67.1 L297,67.1 L297,33 L330,33 L330,0 L165,0 L165,33 L198,33 L198,67.1 C187.855078,67.1 110.541407,67.1 99,67.1 L99,364.1 L198,364.1 L198,383.276953 L224.60625,463.1 L0,463.1 L0,563.2 L495,563.2 L495,463.1 L270.39375,463.1 L297,383.276953 L297,364.1 L313.5,364.1 C359.326172,364.1 401.379688,338.679688 422.670703,298.1 L495,298.1 L495,133.1 L422.670703,133.1 C401.379688,92.5203125 359.326172,67.1 313.5,67.1 Z M231,33 L264,33 L264,67.1 L231,67.1 L231,33 Z M132,232.1 L198,232.1 L198,265.1 L132,265.1 L132,232.1 Z M231,209.910938 C233.101172,207.83125 235.146484,205.618359 237.131641,203.263672 C242.760547,219.785157 252.046093,234.613672 264,246.829688 L264,377.923047 L247.5,427.423047 L231,377.923047 C231,350.551953 231,230.076172 231,209.910938 Z M132,199.1 L132,166.1 L165,166.1 L165,199.1 L132,199.1 Z M132,100.1 L165,100.1 L165,133.1 L132,133.1 L132,100.1 Z M132,331.1 L132,298.1 L198,298.1 L198,331.1 C178.367578,331.1 152.040625,331.1 132,331.1 Z M462,265.1 L402.303516,265.1 L394.255468,281.1875 C378.864062,311.974609 347.917968,331.1 313.5,331.1 L297,331.1 L297,270.432422 C312.013282,277.586718 328.792578,281.6 346.5,281.6 L346.5,248.6 C301.008984,248.6 264,211.591016 264,166.1 L264,133.1 L231,133.1 C231,155.525391 216.463672,183.016797 198,194.111328 L198,100.1 L313.5,100.1 C347.917968,100.1 378.864062,119.225391 394.259766,150.008203 L402.303516,166.1 L462,166.1 L462,265.1 Z" id="Shape"></path>
            <path d="M363,430.1 L396,430.1 C396,402.80625 418.20625,380.6 445.5,380.6 L445.5,347.6 C400.008984,347.6 363,384.608984 363,430.1 Z" id="Path"></path>
            <path d="M99,430.1 C99,384.608984 61.9910159,347.6 16.5,347.6 L16.5,380.6 C43.79375,380.6 66,402.80625 66,430.1 L99,430.1 Z" id="Path"></path>
        </g>
    </g>
</svg>